<svg width="163" height="38" viewBox="0 0 163 38" fill="none" xmlns="http://www.w3.org/2000/svg">
<path d="M57.2828 16.6066C56.7936 14.6703 55.5594 13.2531 53.1387 13.2531C49.5741 13.2531 48.0841 16.4412 48.0841 19.6751C48.0841 22.9091 49.5741 26.0997 53.1387 26.0997C55.7225 26.0997 57.1523 24.1406 57.3756 21.6852H60.2177C59.9844 25.7232 57.1674 28.5093 53.1387 28.5093C48.1543 28.5093 45.1742 24.4942 45.1742 19.6751C45.1742 14.856 48.1543 10.8435 53.1387 10.8435C56.8864 10.8664 59.8439 12.9681 60.1926 16.6066H57.2828ZM61.9411 21.9905C61.9411 18.2604 64.1536 15.5659 68.0192 15.5659C71.8848 15.5659 74.0948 18.2604 74.0948 21.9905C74.0948 25.7206 71.8823 28.438 68.0192 28.438C64.1561 28.438 61.9411 25.7461 61.9411 21.9905ZM71.4408 21.9905C71.4408 19.8889 70.3922 17.693 68.0192 17.693C65.6461 17.693 64.5951 19.8889 64.5951 21.9905C64.5951 24.0922 65.6436 26.316 68.0192 26.316C70.3947 26.316 71.4408 24.1177 71.4408 21.9905ZM76.3775 11.2455H79.0315V13.7899H76.3775V11.2455ZM76.3775 15.8967H79.0315V28.1098H76.3775V15.8967ZM81.9213 15.8967H84.4298V17.693L84.4775 17.7388C84.8586 17.0744 85.4058 16.5236 86.0638 16.1421C86.7218 15.7606 87.4673 15.5619 88.2252 15.5659C90.834 15.5659 92.4897 16.9831 92.4897 19.7235V28.12H89.8382V20.4334C89.7905 18.52 89.0455 17.693 87.4852 17.693C85.7167 17.693 84.5753 19.1103 84.5753 20.9041V28.1073H81.9213V15.8967ZM110.167 28.1073H108.303L107.862 26.1252C106.301 27.919 104.879 28.5093 102.845 28.5093C97.8604 28.5093 94.8803 24.4942 94.8803 19.6751C94.8803 14.856 97.8604 10.8435 102.845 10.8435C106.477 10.8435 109.527 12.8027 109.969 16.6066H107.139C106.858 14.3853 104.949 13.2531 102.855 13.2531C99.2927 13.2531 97.8002 16.4412 97.8002 19.6751C97.8002 22.9091 99.2927 26.0997 102.855 26.0997C105.835 26.1481 107.465 24.3187 107.511 21.4715H103.088V19.2273H110.167V28.1073ZM115.034 22.7004C115.034 24.6138 116.057 26.3135 118.27 26.3135C119.807 26.3135 120.738 25.629 121.205 24.2779H123.713C123.131 26.947 120.896 28.433 118.265 28.433C114.502 28.433 112.375 25.7639 112.375 22.0083C112.375 18.5378 114.61 15.5608 118.194 15.5608C121.99 15.5608 124.32 19.0339 123.876 22.6852L115.034 22.7004ZM121.227 20.9193C121.134 19.2197 119.993 17.6854 118.199 17.6854C116.361 17.6854 115.104 19.1026 115.034 20.9193H121.227ZM134.036 19.983C133.825 18.4945 132.754 17.693 131.276 17.693C129.904 17.693 127.97 18.4258 127.97 22.133C127.97 24.1685 128.855 26.3135 131.161 26.3135C132.699 26.3135 133.77 25.2754 134.026 23.5274H136.68C136.178 26.69 134.259 28.438 131.161 28.438C127.398 28.438 125.316 25.7232 125.316 22.133C125.316 18.4487 127.295 15.5659 131.254 15.5659C134.048 15.5659 136.424 16.9831 136.68 19.983H134.036ZM138.925 11.2455H141.581V20.8328L146.39 15.8967H149.651L145.04 20.385L150.095 28.1073H146.841L143.164 22.1788L141.581 23.7385V28.1073H138.925V11.2455ZM150.802 21.9905C150.802 18.2604 153.015 15.5659 156.878 15.5659C160.741 15.5659 162.946 18.2604 162.946 21.9905C162.946 25.7206 160.734 28.438 156.868 28.438C153.002 28.438 150.802 25.7461 150.802 21.9905ZM160.302 21.9905C160.302 19.8889 159.254 17.693 156.878 17.693C154.502 17.693 153.456 19.8889 153.456 21.9905C153.456 24.0922 154.505 26.316 156.878 26.316C159.251 26.316 160.302 24.1177 160.302 21.9905Z" fill="#4C4C4C"/>
<path d="M37.1168 19.0807C37.133 22.7459 36.062 26.3337 34.0392 29.3903C32.0164 32.4469 29.1326 34.835 25.7526 36.2527C22.3725 37.6704 18.648 38.054 15.05 37.3549C11.452 36.6559 8.14201 34.9057 5.53867 32.3256C2.93532 29.7454 1.15552 26.4513 0.424309 22.8597C-0.306902 19.268 0.0433192 15.5402 1.43069 12.1476C2.81806 8.75504 5.18026 5.85003 8.21861 3.79993C11.257 1.74982 14.835 0.646707 18.5002 0.630065C23.4156 0.608266 28.1383 2.53986 31.6295 5.99998C35.1208 9.46009 37.0946 14.1653 37.1168 19.0807Z" fill="#8DC63F"/>
<path d="M35.7207 19.0847C35.7361 22.4739 34.7461 25.7916 32.876 28.6182C31.0059 31.4448 28.3396 33.6533 25.2142 34.9646C22.0889 36.2758 18.6449 36.6309 15.3178 35.9848C11.9907 35.3388 8.9299 33.7206 6.52244 31.335C4.11497 28.9494 2.46899 25.9034 1.79262 22.5824C1.11626 19.2613 1.43989 15.8142 2.72261 12.6771C4.00532 9.53991 6.18949 6.85357 8.99893 4.95775C11.8084 3.06194 15.1169 2.04178 18.5061 2.0263C20.7565 2.01602 22.9869 2.4491 25.0699 3.3008C27.153 4.1525 29.0478 5.40615 30.6463 6.99017C32.2449 8.57419 33.5157 10.4576 34.3864 12.5327C35.2571 14.6079 35.7104 16.8343 35.7207 19.0847Z" fill="#F9E988"/>
<path d="M18.8967 3.13755C19.9861 2.94308 21.1013 2.94308 22.1908 3.13755C23.2906 3.31184 24.3538 3.6682 25.3365 4.19198C26.3128 4.72896 27.1583 5.4573 27.998 6.14464C28.8376 6.83197 29.6753 7.52711 30.472 8.29255C31.2843 9.04514 31.9934 9.90199 32.5808 10.8408C33.1865 11.7732 33.6825 12.7724 34.059 13.8186C34.7916 15.9081 35.0001 18.1456 34.6663 20.3345H34.5569C34.2353 18.2433 33.6974 16.1911 32.9518 14.211C32.5945 13.2318 32.1738 12.2769 31.6924 11.3524C31.1864 10.4305 30.6297 9.53742 30.0248 8.67722C29.4078 7.80658 28.6518 7.04333 27.7871 6.41801C26.9181 5.79902 25.9184 5.39677 24.9499 5.016C23.9814 4.63524 23.0128 4.25642 22.0072 3.96548C21.0016 3.67453 19.9726 3.45779 18.9006 3.2469L18.8967 3.13755Z" fill="white"/>
<path d="M27.2735 13.0315C26.0297 12.6703 24.7351 12.1607 23.4346 11.6452C23.3604 11.3171 23.0695 10.909 22.4837 10.4111C21.6304 9.67103 20.0292 9.69056 18.6448 10.0206C17.1178 9.66127 15.6084 9.53435 14.1537 9.88192C2.31085 13.1428 9.02797 21.1155 4.67746 29.1214C5.29645 30.4336 11.9687 38.1036 21.6226 36.0396C21.6226 36.0396 18.3226 28.106 25.7719 24.2983C31.8154 21.1995 36.1835 15.4626 27.2735 13.0315Z" fill="#8BC53F"/>
<path d="M28.7361 18.247C28.7372 18.3893 28.6961 18.5287 28.618 18.6476C28.5398 18.7665 28.4281 18.8595 28.297 18.9149C28.1659 18.9702 28.0214 18.9854 27.8816 18.9585C27.7419 18.9316 27.6133 18.8638 27.5122 18.7638C27.411 18.6637 27.3418 18.5359 27.3134 18.3964C27.285 18.257 27.2986 18.1123 27.3525 17.9806C27.4064 17.8489 27.4982 17.7362 27.6162 17.6568C27.7343 17.5773 27.8732 17.5347 28.0155 17.5343C28.1096 17.5338 28.2029 17.5518 28.2901 17.5874C28.3772 17.6229 28.4565 17.6753 28.5234 17.7414C28.5903 17.8076 28.6435 17.8863 28.68 17.9731C28.7165 18.0598 28.7356 18.1529 28.7361 18.247Z" fill="white"/>
<path d="M18.6448 10.0168C19.5078 10.0793 22.6301 11.0986 23.4346 11.6453C22.7688 9.69267 20.5056 9.43883 18.6448 10.0168Z" fill="#009345"/>
<path d="M19.4668 14.9415C19.4668 15.598 19.2721 16.2398 18.9074 16.7857C18.5426 17.3316 18.0242 17.757 17.4176 18.0083C16.8111 18.2595 16.1436 18.3253 15.4997 18.1972C14.8558 18.0691 14.2643 17.7529 13.8001 17.2887C13.3358 16.8245 13.0197 16.233 12.8916 15.5891C12.7635 14.9451 12.8292 14.2777 13.0805 13.6711C13.3317 13.0646 13.7572 12.5461 14.3031 12.1814C14.849 11.8166 15.4908 11.6219 16.1473 11.6219C17.0277 11.6219 17.872 11.9717 18.4946 12.5942C19.1171 13.2167 19.4668 14.0611 19.4668 14.9415Z" fill="white"/>
<path d="M18.4846 14.9704C18.485 15.4316 18.3486 15.8825 18.0927 16.2662C17.8367 16.6499 17.4727 16.949 17.0467 17.1258C16.6207 17.3025 16.1519 17.349 15.6995 17.2592C15.2471 17.1695 14.8315 16.9476 14.5053 16.6216C14.179 16.2956 13.9568 15.8802 13.8666 15.4279C13.7765 14.9756 13.8226 14.5067 13.999 14.0806C14.1754 13.6544 14.4742 13.2902 14.8577 13.0339C15.2411 12.7777 15.692 12.6409 16.1532 12.6409C16.771 12.6414 17.3634 12.8869 17.8005 13.3236C18.2376 13.7603 18.4836 14.3525 18.4846 14.9704Z" fill="#58595B"/>
<path d="M31.4209 19.7079C28.736 21.6 25.6821 23.0274 21.3511 23.0274C19.3243 23.0274 18.9142 20.8795 17.5747 21.93C16.8815 22.4748 14.4504 23.6874 12.5076 23.6015C10.5647 23.5156 7.43067 22.3733 6.56174 18.2434C6.21612 22.3733 6.03843 25.4155 4.48802 28.9029C7.57712 33.849 14.9406 37.6625 21.6225 36.0223C20.9059 31.0079 25.2877 26.095 27.7578 23.582C28.6911 22.631 30.4915 21.0767 31.4209 19.7001V19.7079Z" fill="#8BC53F"/>
<path d="M31.3155 19.8325C30.4601 20.5681 29.5057 21.1801 28.4803 21.6504C27.4581 22.1361 26.3924 22.5245 25.2974 22.8103C24.2039 23.0934 23.0597 23.3063 21.9018 23.2008C20.7439 23.0954 19.5586 22.701 18.7951 21.834L18.8322 21.791C19.7773 22.4022 20.8571 22.617 21.935 22.6482C23.0293 22.68 24.1238 22.589 25.1978 22.3768C26.2829 22.1507 27.3446 21.8238 28.369 21.4005C29.4099 21.003 30.3899 20.4614 31.2804 19.7915L31.3155 19.8325Z" fill="#58595B"/>
</svg>
