<svg width="40" height="40" viewBox="0 0 40 40" fill="none" xmlns="http://www.w3.org/2000/svg">
<path d="M32.5766 29.9234C32.9289 30.2757 33.1267 30.7534 33.1267 31.2516C33.1267 31.7497 32.9289 32.2274 32.5766 32.5797C32.2244 32.9319 31.7466 33.1298 31.2485 33.1298C30.7503 33.1298 30.2726 32.9319 29.9204 32.5797L20.0001 22.6562L10.0766 32.5766C9.72438 32.9288 9.24664 33.1267 8.74849 33.1267C8.25035 33.1267 7.77261 32.9288 7.42037 32.5766C7.06813 32.2243 6.87024 31.7466 6.87024 31.2484C6.87024 30.7503 7.06813 30.2726 7.42037 29.9203L17.3438 20L7.42349 10.0766C7.07125 9.72432 6.87336 9.24658 6.87336 8.74844C6.87336 8.25029 7.07125 7.77255 7.42349 7.42031C7.77573 7.06807 8.25347 6.87018 8.75162 6.87018C9.24976 6.87018 9.7275 7.06807 10.0797 7.42031L20.0001 17.3438L29.9235 7.41875C30.2757 7.06651 30.7535 6.86862 31.2516 6.86862C31.7498 6.86862 32.2275 7.06651 32.5797 7.41875C32.932 7.77099 33.1299 8.24873 33.1299 8.74687C33.1299 9.24502 32.932 9.72276 32.5797 10.075L22.6563 20L32.5766 29.9234Z" fill="black"/>
</svg>
