<svg width="225" height="40" viewBox="0 0 225 40" fill="none" xmlns="http://www.w3.org/2000/svg">
<path d="M38.1822 20.1627V20.1268V20.091C38.1463 9.50493 29.604 0.864014 19.1883 0.864014C8.71879 0.864014 0.194397 9.50493 0.194397 20.1627C0.194397 30.7845 8.71879 39.4613 19.1883 39.4613C24.0197 39.4613 28.5642 37.6327 32.0959 34.2893C32.804 33.617 32.8488 32.5235 32.1586 31.8243C31.5222 31.1162 30.4287 31.0714 29.7295 31.7078C29.7295 31.7078 29.7295 31.7078 29.6936 31.7436C26.8611 34.4327 23.0337 35.9745 19.1076 35.9745C14.5093 35.9745 10.395 33.9577 7.54456 30.7397L15.6656 17.7335V23.7571C15.6656 26.6434 16.786 27.5666 17.7272 27.8355C18.6684 28.1044 20.0757 27.8983 21.6174 25.487L26.0634 18.2713C26.2158 18.0562 26.3323 17.8142 26.4847 17.6708V21.3279C26.4847 24.0081 27.5782 26.1952 29.4427 27.235C31.1188 28.212 33.2522 28.0865 35.0091 27.0198C37.1782 25.5856 38.3346 23.1117 38.1822 20.1627ZM33.2522 23.9363C32.5799 24.3576 31.7911 24.4204 31.1906 24.0887C30.4376 23.6316 29.9984 22.6277 29.9984 21.2562V17.0254C29.9984 15.0086 29.2096 13.5475 27.8651 13.1621C25.5793 12.4898 23.8583 15.2954 23.2129 16.3531L19.1883 22.8159V14.8472C19.1345 13.0187 18.5519 11.943 17.4314 11.6114C16.6785 11.3963 15.567 11.4949 14.4734 13.1352L5.465 27.5576C4.25491 25.2719 3.63642 22.7442 3.63642 20.1537C3.63642 11.45 10.637 4.36878 19.1883 4.36878C27.7485 4.36878 34.7401 11.45 34.7401 20.1537V20.1896V20.2254C34.8119 21.9285 34.292 23.2641 33.2522 23.9363Z" fill="black"/>
<path d="M64.5352 13.6282C64.9923 13.8971 65.3867 14.5156 65.3867 15.0892C65.3867 15.9766 64.6338 16.7296 63.7823 16.7296C63.5671 16.7296 63.361 16.6668 63.1817 16.613C62.1778 15.8601 60.9049 15.3761 59.5604 15.3761C56.3962 15.3761 54.2181 17.9576 54.2181 21.1576C54.2181 24.3576 56.45 26.9212 59.5783 26.9212C61.1559 26.9212 62.5632 26.2848 63.6209 25.2808C63.8898 25.0926 64.2215 24.9761 64.5621 24.9761C65.4136 24.9761 66.0859 25.6484 66.0859 26.4999C66.0859 27.0556 65.7543 27.5397 65.333 27.8086C63.8091 29.1173 61.7475 29.9867 59.6142 29.9867C54.7559 29.9867 50.8029 25.9979 50.8029 21.059C50.8029 16.12 54.7559 12.1312 59.6142 12.1312C61.4069 12.0864 63.1279 12.6601 64.5352 13.6282Z" fill="black"/>
<path d="M73.436 17.3572C69.9671 17.3572 67.0898 20.1538 67.0898 23.6227C67.0898 27.0917 69.9671 30.0048 73.436 30.0048C76.7167 30.0048 79.5223 27.0558 79.5223 23.6227C79.5223 20.1538 76.7526 17.3572 73.436 17.3572ZM73.4002 26.9213C71.8226 26.9213 70.5139 25.4961 70.5139 23.6676C70.5139 21.7583 71.8226 20.602 73.4002 20.602C74.8613 20.602 76.0803 21.7942 76.0803 23.6676C76.0803 25.541 74.8433 26.9213 73.4002 26.9213Z" fill="black"/>
<path d="M81.602 28.0774V19.2661C81.602 18.2981 82.3549 17.5093 83.3319 17.5093C84.2731 17.5093 85.0619 18.2981 85.0619 19.2661V28.0774C85.0619 29.0454 84.2731 29.8342 83.3319 29.8342C82.3908 29.8342 81.602 29.0186 81.602 28.0774Z" fill="black"/>
<path d="M81.3599 14.1838C81.3599 13.0275 82.2473 12.1222 83.3409 12.1222C84.4613 12.1222 85.3487 13.0634 85.3487 14.1838C85.3487 15.3043 84.4613 16.1917 83.3409 16.1917C82.2115 16.1558 81.3599 15.2684 81.3599 14.1838Z" fill="black"/>
<path d="M91.6143 23.291V28.0686C91.6143 29.0367 90.8255 29.8255 89.8843 29.8255C88.9431 29.8255 88.1722 29.0367 88.1722 28.0686V18.854C88.1722 18.1011 88.7728 17.5095 89.5168 17.5095C90.2518 17.5095 90.8255 18.1459 90.8255 18.854C92.1969 17.5454 93.4428 17.3661 94.5991 17.3661C98.0322 17.3661 99.556 19.9476 99.556 22.8966V28.0955C99.556 29.0636 98.7672 29.8524 97.826 29.8524C96.8849 29.8524 96.0961 29.0636 96.0961 28.0955V23.3C96.0961 21.812 95.9078 20.5392 93.7476 20.5392C92.2596 20.5302 91.6143 21.8031 91.6143 23.291Z" fill="black"/>
<path d="M110.707 25.1285C110.285 25.1285 110.034 24.9403 109.819 24.6714L105.813 20.3509V28.0775C105.813 29.0456 105.024 29.8344 104.083 29.8344C103.141 29.8344 102.353 29.0456 102.353 28.0775V12.7587C102.469 12.4898 102.72 12.3105 102.989 12.3105C103.294 12.3105 103.545 12.5795 103.742 12.7587L110.142 19.9296C110.33 20.1447 110.563 20.2613 110.698 20.2613C110.814 20.2613 111.065 20.1447 111.253 19.9296L117.636 12.7587C117.824 12.5705 118.057 12.3105 118.389 12.3105C118.693 12.3105 118.944 12.4988 119.025 12.7587V28.0775C119.025 29.0456 118.272 29.8344 117.295 29.8344C116.354 29.8344 115.565 29.0456 115.565 28.0775V20.3509L111.576 24.6714C111.307 24.9403 111.038 25.1285 110.707 25.1285Z" fill="black"/>
<path d="M143.012 20.5302H142.644C140.484 20.6468 140.062 21.8748 140.062 23.291V28.0686C140.062 29.0367 139.274 29.8255 138.333 29.8255C137.391 29.8255 136.603 29.0367 136.603 28.0686V18.854C136.603 18.1011 137.203 17.5095 137.947 17.5095C138.682 17.5095 139.256 18.1459 139.256 18.854C140.547 17.6619 141.586 17.393 142.644 17.3661H142.976C143.8 17.3661 144.553 18.0742 144.553 18.9706C144.571 19.7952 143.836 20.5302 143.012 20.5302Z" fill="black"/>
<path d="M156.269 27.2531C156.421 27.522 156.538 27.773 156.538 28.0777C156.538 28.9651 155.713 29.8077 154.808 29.8077C154.207 29.8077 153.687 29.3506 153.284 28.8397L149.331 24.2503V28.0509C149.331 29.0189 148.542 29.8077 147.601 29.8077C146.66 29.8077 145.871 29.0189 145.871 28.0509V14.0318C145.871 13.0637 146.624 12.2749 147.601 12.2749C148.578 12.2749 149.331 13.0637 149.331 14.0318V22.7803L153.284 18.406C153.705 17.9489 154.171 17.4648 154.772 17.4648C155.623 17.4648 156.412 18.2536 156.412 19.141C156.412 19.4099 156.349 19.6968 156.197 19.9298L153.051 23.3629L156.269 27.2531Z" fill="black"/>
<path d="M177.028 29.9779H176.087C173.47 29.9779 171.946 28.8216 171.946 24.7521V20.5303H171.059C170.234 20.5303 169.535 19.7773 169.535 18.9527C169.535 18.0653 170.288 17.3482 171.059 17.3482H171.946V14.0944C171.946 13.1263 172.699 12.3375 173.676 12.3375C174.599 12.3555 175.388 13.1442 175.388 14.1123V17.3661H176.813C177.638 17.3661 178.337 18.0742 178.337 18.9706C178.337 19.7952 177.584 20.5482 176.813 20.5482H175.388V24.0978C175.388 26.4462 175.505 26.9303 176.544 26.9303H177.028C177.853 26.9303 178.552 27.6026 178.552 28.4541C178.57 29.2787 177.844 29.9779 177.028 29.9779Z" fill="black"/>
<path d="M193.638 13.6282C194.086 13.8971 194.49 14.5156 194.49 15.0892C194.49 15.9766 193.737 16.7296 192.885 16.7296C192.67 16.7296 192.464 16.6668 192.285 16.613C191.281 15.8601 190.008 15.3761 188.663 15.3761C185.499 15.3761 183.321 17.9576 183.321 21.1576C183.321 24.3576 185.553 26.9212 188.681 26.9212C190.259 26.9212 191.666 26.2848 192.724 25.2808C192.993 25.0926 193.324 24.9761 193.665 24.9761C194.516 24.9761 195.189 25.6484 195.189 26.4999C195.189 27.0556 194.857 27.5397 194.436 27.8086C192.912 29.1173 190.85 29.9867 188.717 29.9867C183.859 29.9867 179.906 25.9979 179.906 21.059C179.906 16.12 183.859 12.1312 188.717 12.1312C190.51 12.0864 192.267 12.6601 193.638 13.6282Z" fill="black"/>
<path d="M132.21 17.4647C131.458 17.4647 130.902 18.0653 130.902 18.8092L130.839 19.2305C129.333 17.4737 127.406 17.3213 126.832 17.3213C123.462 17.3213 121.051 20.1538 121.051 23.5869C121.051 27.0558 123.444 29.9689 126.644 29.9689C127.989 29.9689 130.113 29.3684 130.785 28.0597L130.848 28.481C130.848 29.1891 131.404 29.8255 132.193 29.7897C132.945 29.7897 133.537 29.1891 133.537 28.4451V18.8092C133.555 18.1011 132.972 17.4647 132.21 17.4647ZM127.2 26.9213C125.676 26.9213 124.466 25.4602 124.466 23.6675C124.466 21.8389 125.703 20.5661 127.2 20.5661C128.688 20.5661 130.05 21.8031 130.05 23.6675C130.05 25.532 128.742 26.9213 127.2 26.9213Z" fill="black"/>
<path d="M168.809 23.3718C168.746 19.5174 166.227 17.3572 162.911 17.3572C158.805 17.3572 157.049 20.3421 157.049 23.7751C157.049 28.1494 159.935 30.0048 163.404 30.0048C164.712 30.0048 166.084 29.8166 167.142 29.0368C167.563 28.7679 167.895 28.3286 167.895 27.7998C167.895 27.011 167.258 26.3746 166.523 26.3746C166.191 26.3746 165.851 26.4911 165.636 26.6435C164.928 26.9751 164.031 27.1006 163.386 27.1006C162.534 27.1006 160.553 26.769 160.553 24.7073H167.509C168.208 24.7073 168.809 24.0709 168.809 23.3718ZM160.517 22.5113C160.517 21.0502 162.041 20.5662 162.982 20.5662C163.888 20.5662 165.447 21.0502 165.492 22.5113H160.517Z" fill="black"/>
<path d="M207.352 17.4647C206.599 17.4647 206.044 18.0653 206.044 18.8092L205.981 19.2305C204.475 17.4737 202.548 17.3213 201.974 17.3213C198.604 17.3213 196.193 20.1538 196.193 23.5869C196.193 27.0558 198.586 29.9689 201.786 29.9689C203.13 29.9689 205.255 29.3684 205.927 28.0597L205.99 28.481C205.99 29.1891 206.546 29.8255 207.334 29.7897C208.087 29.7897 208.679 29.1891 208.679 28.4451V18.8092C208.688 18.1011 208.105 17.4647 207.352 17.4647ZM202.342 26.9213C200.854 26.9213 199.608 25.4602 199.608 23.6675C199.608 21.8389 200.8 20.5661 202.342 20.5661C203.83 20.5661 205.174 21.8031 205.174 23.6675C205.174 25.532 203.883 26.9213 202.342 26.9213Z" fill="black"/>
<path d="M218.485 17.3661C217.293 17.3661 215.724 17.6977 214.452 19.0064C214.452 18.1549 213.896 17.5185 213.143 17.5185C212.39 17.5185 211.798 18.119 211.798 18.863V33.3572C211.798 34.3252 212.587 35.114 213.528 35.114C214.469 35.114 215.258 34.3252 215.258 33.3572V28.9829C216.199 29.6821 217.687 29.9869 218.691 30.0227C221.945 30.0227 224.285 27.0737 224.285 23.6406C224.267 20.1627 221.802 17.3661 218.485 17.3661ZM218.064 26.9123C216.54 26.9123 215.231 25.5409 215.231 23.6585C215.231 21.7762 216.54 20.5571 218.064 20.5571C219.552 20.5571 220.798 21.7941 220.798 23.6585C220.798 25.4602 219.606 26.9123 218.064 26.9123Z" fill="black"/>
</svg>
