<svg width="181" height="32" viewBox="0 0 181 32" fill="none" xmlns="http://www.w3.org/2000/svg">
<path d="M31.3454 15.7301V15.7014V15.6727C31.3167 7.20387 24.4829 0.291138 16.1503 0.291138C7.77471 0.291138 0.9552 7.20387 0.9552 15.7301C0.9552 24.2276 7.77471 31.169 16.1503 31.169C20.0154 31.169 23.6511 29.7061 26.4764 27.0314C27.0429 26.4936 27.0787 25.6187 26.5266 25.0594C26.0175 24.4929 25.1426 24.457 24.5833 24.9662C24.5833 24.9662 24.5833 24.9662 24.5546 24.9948C22.2886 27.1461 19.2266 28.3795 16.0858 28.3795C12.4071 28.3795 9.11567 26.7661 6.83533 24.1917L13.3322 13.7867V18.6056C13.3322 20.9146 14.2285 21.6532 14.9815 21.8683C15.7344 22.0835 16.8602 21.9185 18.0936 19.9896L21.6504 14.217C21.7723 14.0449 21.8655 13.8513 21.9874 13.7366V16.6623C21.9874 18.8064 22.8623 20.5561 24.3538 21.3879C25.6948 22.1695 27.4014 22.0691 28.8069 21.2158C30.5423 20.0684 31.4673 18.0893 31.3454 15.7301ZM27.4014 18.749C26.8636 19.086 26.2326 19.1362 25.7521 18.8709C25.1498 18.5052 24.7984 17.7021 24.7984 16.6049V13.2202C24.7984 11.6068 24.1674 10.4379 23.0917 10.1296C21.2632 9.59178 19.8863 11.8363 19.37 12.6824L16.1503 17.8526V11.4777C16.1073 10.0149 15.6412 9.15436 14.7448 8.88903C14.1425 8.71693 13.2533 8.79581 12.3784 10.1081L5.17168 21.646C4.20361 19.8175 3.70882 17.7953 3.70882 15.7229C3.70882 8.75996 9.30929 3.09495 16.1503 3.09495C22.9985 3.09495 28.5918 8.75996 28.5918 15.7229V15.7516V15.7803C28.6492 17.1427 28.2333 18.2112 27.4014 18.749Z" fill="black"/>
<path d="M52.4278 10.5025C52.7935 10.7176 53.1091 11.2124 53.1091 11.6713C53.1091 12.3812 52.5067 12.9836 51.8255 12.9836C51.6534 12.9836 51.4884 12.9334 51.345 12.8904C50.5419 12.288 49.5236 11.9008 48.448 11.9008C45.9167 11.9008 44.1741 13.966 44.1741 16.526C44.1741 19.086 45.9597 21.1369 48.4623 21.1369C49.7244 21.1369 50.8502 20.6278 51.6964 19.8246C51.9115 19.674 52.1768 19.5808 52.4493 19.5808C53.1306 19.5808 53.6684 20.1186 53.6684 20.7999C53.6684 21.2445 53.4031 21.6317 53.066 21.8468C51.847 22.8938 50.1977 23.5893 48.491 23.5893C44.6044 23.5893 41.442 20.3983 41.442 16.4471C41.442 12.496 44.6044 9.30494 48.491 9.30494C49.9252 9.26908 51.302 9.72802 52.4278 10.5025Z" fill="black"/>
<path d="M59.5485 13.4857C56.7734 13.4857 54.4716 15.723 54.4716 18.4982C54.4716 21.2733 56.7734 23.6038 59.5485 23.6038C62.1731 23.6038 64.4176 21.2446 64.4176 18.4982C64.4176 15.723 62.2018 13.4857 59.5485 13.4857ZM59.5199 21.1371C58.2578 21.1371 57.2108 19.9969 57.2108 18.534C57.2108 17.0066 58.2578 16.0816 59.5199 16.0816C60.6887 16.0816 61.664 17.0353 61.664 18.534C61.664 20.0327 60.6744 21.1371 59.5199 21.1371Z" fill="black"/>
<path d="M66.0813 22.0619V15.0129C66.0813 14.2385 66.6837 13.6074 67.4653 13.6074C68.2182 13.6074 68.8493 14.2385 68.8493 15.0129V22.0619C68.8493 22.8364 68.2182 23.4674 67.4653 23.4674C66.7123 23.4674 66.0813 22.8148 66.0813 22.0619Z" fill="black"/>
<path d="M65.8877 10.947C65.8877 10.022 66.5976 9.29773 67.4725 9.29773C68.3688 9.29773 69.0787 10.0507 69.0787 10.947C69.0787 11.8434 68.3688 12.5533 67.4725 12.5533C66.5689 12.5246 65.8877 11.8147 65.8877 10.947Z" fill="black"/>
<path d="M74.0911 18.2328V22.0548C74.0911 22.8293 73.4601 23.4603 72.7072 23.4603C71.9542 23.4603 71.3375 22.8293 71.3375 22.0548V14.6832C71.3375 14.0808 71.818 13.6075 72.4132 13.6075C73.0012 13.6075 73.4601 14.1167 73.4601 14.6832C74.5573 13.6362 75.554 13.4928 76.479 13.4928C79.2255 13.4928 80.4446 15.558 80.4446 17.9172V22.0763C80.4446 22.8508 79.8135 23.4818 79.0606 23.4818C78.3076 23.4818 77.6766 22.8508 77.6766 22.0763V18.2399C77.6766 17.0496 77.526 16.0313 75.7978 16.0313C74.6074 16.0241 74.0911 17.0424 74.0911 18.2328Z" fill="black"/>
<path d="M89.365 19.7027C89.028 19.7027 88.8272 19.5521 88.6551 19.337L85.4497 15.8807V22.062C85.4497 22.8364 84.8187 23.4674 84.0657 23.4674C83.3128 23.4674 82.6818 22.8364 82.6818 22.062V9.80691C82.775 9.59178 82.9758 9.44836 83.1909 9.44836C83.4347 9.44836 83.6355 9.66349 83.7933 9.80691L88.9133 15.5436C89.0639 15.7157 89.2503 15.8089 89.3579 15.8089C89.4511 15.8089 89.6519 15.7157 89.8025 15.5436L94.9081 9.80691C95.0587 9.65632 95.2452 9.44836 95.5105 9.44836C95.7543 9.44836 95.9551 9.59895 96.0196 9.80691V22.062C96.0196 22.8364 95.4173 23.4674 94.6356 23.4674C93.8827 23.4674 93.2517 22.8364 93.2517 22.062V15.8807L90.0606 19.337C89.8455 19.5521 89.6304 19.7027 89.365 19.7027Z" fill="black"/>
<path d="M115.209 16.0241H114.915C113.187 16.1173 112.85 17.0998 112.85 18.2328V22.0548C112.85 22.8293 112.219 23.4603 111.466 23.4603C110.713 23.4603 110.082 22.8293 110.082 22.0548V14.6832C110.082 14.0808 110.562 13.6075 111.157 13.6075C111.745 13.6075 112.204 14.1167 112.204 14.6832C113.237 13.7294 114.069 13.5143 114.915 13.4928H115.18C115.84 13.4928 116.442 14.0593 116.442 14.7764C116.457 15.4361 115.869 16.0241 115.209 16.0241Z" fill="black"/>
<path d="M125.815 21.4025C125.937 21.6176 126.03 21.8184 126.03 22.0622C126.03 22.7721 125.37 23.4462 124.646 23.4462C124.166 23.4462 123.75 23.0805 123.427 22.6717L120.265 19.0002V22.0407C120.265 22.8151 119.634 23.4462 118.881 23.4462C118.128 23.4462 117.497 22.8151 117.497 22.0407V10.8254C117.497 10.051 118.099 9.41992 118.881 9.41992C119.662 9.41992 120.265 10.051 120.265 10.8254V17.8242L123.427 14.3248C123.764 13.9591 124.137 13.5719 124.617 13.5719C125.299 13.5719 125.93 14.2029 125.93 14.9128C125.93 15.1279 125.879 15.3574 125.757 15.5439L123.24 18.2903L125.815 21.4025Z" fill="black"/>
<path d="M142.422 23.5823H141.67C139.576 23.5823 138.357 22.6572 138.357 19.4017V16.0242H137.647C136.987 16.0242 136.428 15.4218 136.428 14.7621C136.428 14.0522 137.03 13.4785 137.647 13.4785H138.357V10.8755C138.357 10.101 138.959 9.46997 139.741 9.46997C140.479 9.48431 141.11 10.1154 141.11 10.8898V13.4928H142.25C142.91 13.4928 143.469 14.0593 143.469 14.7764C143.469 15.4361 142.867 16.0385 142.25 16.0385H141.11V18.8782C141.11 20.7569 141.203 21.1442 142.035 21.1442H142.422C143.082 21.1442 143.642 21.682 143.642 22.3632C143.656 23.0229 143.075 23.5823 142.422 23.5823Z" fill="black"/>
<path d="M155.71 10.5025C156.069 10.7176 156.391 11.2124 156.391 11.6713C156.391 12.3812 155.789 12.9836 155.108 12.9836C154.936 12.9836 154.771 12.9334 154.627 12.8904C153.824 12.288 152.806 11.9008 151.73 11.9008C149.199 11.9008 147.456 13.966 147.456 16.526C147.456 19.086 149.242 21.1369 151.745 21.1369C153.007 21.1369 154.133 20.6278 154.979 19.8246C155.194 19.674 155.459 19.5808 155.732 19.5808C156.413 19.5808 156.951 20.1186 156.951 20.7999C156.951 21.2445 156.685 21.6317 156.348 21.8468C155.129 22.8938 153.48 23.5893 151.773 23.5893C147.887 23.5893 144.724 20.3983 144.724 16.4471C144.724 12.496 147.887 9.30494 151.773 9.30494C153.207 9.26908 154.613 9.72802 155.71 10.5025Z" fill="black"/>
<path d="M106.568 13.5718C105.966 13.5718 105.521 14.0522 105.521 14.6474L105.471 14.9844C104.266 13.5789 102.725 13.457 102.266 13.457C99.5694 13.457 97.6404 15.723 97.6404 18.4695C97.6404 21.2446 99.555 23.5752 102.115 23.5752C103.191 23.5752 104.89 23.0947 105.428 22.0478L105.478 22.3848C105.478 22.9513 105.923 23.4604 106.554 23.4317C107.156 23.4317 107.629 22.9513 107.629 22.3561V14.6474C107.644 14.0809 107.178 13.5718 106.568 13.5718ZM102.56 21.1371C101.341 21.1371 100.372 19.9682 100.372 18.534C100.372 17.0712 101.362 16.0529 102.56 16.0529C103.75 16.0529 104.84 17.0425 104.84 18.534C104.84 20.0256 103.793 21.1371 102.56 21.1371Z" fill="black"/>
<path d="M135.847 18.2974C135.797 15.2139 133.782 13.4857 131.128 13.4857C127.844 13.4857 126.439 15.8736 126.439 18.6201C126.439 22.1195 128.748 23.6038 131.523 23.6038C132.57 23.6038 133.667 23.4533 134.513 22.8294C134.85 22.6143 135.115 22.2629 135.115 21.8398C135.115 21.2088 134.606 20.6996 134.018 20.6996C133.753 20.6996 133.48 20.7929 133.308 20.9148C132.742 21.1801 132.025 21.2805 131.508 21.2805C130.827 21.2805 129.242 21.0152 129.242 19.3658H134.807C135.366 19.3658 135.847 18.8567 135.847 18.2974ZM129.214 17.609C129.214 16.4401 130.433 16.0529 131.186 16.0529C131.91 16.0529 133.158 16.4401 133.194 17.609H129.214Z" fill="black"/>
<path d="M166.682 13.5718C166.079 13.5718 165.635 14.0522 165.635 14.6474L165.584 14.9844C164.38 13.5789 162.838 13.457 162.379 13.457C159.683 13.457 157.754 15.723 157.754 18.4695C157.754 21.2446 159.668 23.5752 162.228 23.5752C163.304 23.5752 165.004 23.0947 165.541 22.0478L165.592 22.3848C165.592 22.9513 166.036 23.4604 166.667 23.4317C167.27 23.4317 167.743 22.9513 167.743 22.3561V14.6474C167.75 14.0809 167.284 13.5718 166.682 13.5718ZM162.673 21.1371C161.483 21.1371 160.486 19.9682 160.486 18.534C160.486 17.0712 161.44 16.0529 162.673 16.0529C163.863 16.0529 164.939 17.0425 164.939 18.534C164.939 20.0256 163.906 21.1371 162.673 21.1371Z" fill="black"/>
<path d="M175.588 13.4928C174.634 13.4928 173.379 13.7581 172.361 14.8051C172.361 14.1238 171.916 13.6147 171.314 13.6147C170.712 13.6147 170.238 14.0952 170.238 14.6903V26.2857C170.238 27.0601 170.869 27.6912 171.622 27.6912C172.375 27.6912 173.006 27.0601 173.006 26.2857V22.7863C173.759 23.3456 174.95 23.5894 175.753 23.6181C178.356 23.6181 180.227 21.2589 180.227 18.5124C180.213 15.7301 178.241 13.4928 175.588 13.4928ZM175.251 21.1298C174.032 21.1298 172.985 20.0326 172.985 18.5268C172.985 17.0209 174.032 16.0456 175.251 16.0456C176.441 16.0456 177.438 17.0352 177.438 18.5268C177.438 19.9681 176.484 21.1298 175.251 21.1298Z" fill="black"/>
</svg>
