<svg width="1440" height="1078" viewBox="0 0 1440 1078" fill="none" xmlns="http://www.w3.org/2000/svg">
<g opacity="0.6">
<mask id="mask0_10_6219" style="mask-type:luminance" maskUnits="userSpaceOnUse" x="-254" y="-152" width="1991" height="1327">
<path d="M1736.5 -151.84H-253.76V1175H1736.5V-151.84Z" fill="white"/>
</mask>
<g mask="url(#mask0_10_6219)">
<path d="M760.821 -870.961L667.491 -882.823L732.427 573.251L854.549 -879.134L760.821 -870.961Z" fill="#2151F5"/>
<path d="M145.911 -746.795L56.3226 -718.109L730.543 574.101L227.405 -793.818L145.911 -746.795Z" fill="#2151F5"/>
<path d="M-377.528 -352.83L-445.356 -287.629L729.004 575.666L-325.091 -430.927L-377.528 -352.83Z" fill="#2151F5"/>
<path d="M-666.805 203.806L-700.693 291.564L728.473 577.657L-652.263 110.848L-666.805 203.806Z" fill="#2151F5"/>
<path d="M-693.713 830.526L-687.345 924.387L728.818 579.7L-719.826 740.168L-693.713 830.526Z" fill="#2151F5"/>
<path d="M-453.237 1409.93L-407.78 1492.3L730.012 581.398L-515.094 1339.05L-453.237 1409.93Z" fill="#2151F5"/>
<path d="M9.59126 1833.4L85.5661 1888.84L731.817 582.433L-76.441 1795.3L9.59126 1833.4Z" fill="#2151F5"/>
<path d="M607.996 2021.6L700.291 2039.73L733.887 582.619L513.95 2023.43L607.996 2021.6Z" fill="#2151F5"/>
<path d="M1229.89 1939.26L1321.2 1916.7L735.85 581.903L1145.42 1980.68L1229.89 1939.26Z" fill="#2151F5"/>
<path d="M1758.71 1601.82L1831.93 1542.77L737.31 580.417L1699.67 1675.06L1758.71 1601.82Z" fill="#2151F5"/>
<path d="M2095.38 1072.52L2136.78 988.048L738 578.479L2072.8 1163.85L2095.38 1072.52Z" fill="#2151F5"/>
<path d="M2176.8 450.519L2178.66 356.473L737.814 576.41L2194.95 542.814L2176.8 450.519Z" fill="#2151F5"/>
<path d="M1964.32 -187.081L1923.53 -271.839L736.832 574.366L2022.14 -112.884L1964.32 -187.081Z" fill="#2151F5"/>
<path d="M1465.43 -673.474L1389.77 -729.413L735.293 572.88L1551.19 -634.863L1465.43 -673.474Z" fill="#2151F5"/>
<g style="mix-blend-mode:multiply" opacity="0.53">
<path d="M1926.72 1323.71L1948.95 1300.01L1387.73 947.712L1911.99 1352.64L1926.72 1323.71Z" fill="#2151F5"/>
</g>
<g style="mix-blend-mode:multiply" opacity="0.53">
<path d="M2125.61 1161.17L2146.6 1135.46L1057.66 664.061L2119.45 1193.79L2125.61 1161.17Z" fill="#2151F5"/>
</g>
<g style="mix-blend-mode:overlay">
<path d="M1955.35 460.656L1958.56 428.414L1422.83 471.403L1959.54 492.739L1955.35 460.656Z" fill="#2151F5"/>
</g>
<g style="mix-blend-mode:multiply" opacity="0.53">
<path d="M2121.76 144.55L2120.43 111.724L1188.89 379.347L2136.06 174.112L2121.76 144.55Z" fill="#2151F5"/>
</g>
<g style="mix-blend-mode:multiply" opacity="0.53">
<path d="M1895.03 -269.637L1882.72 -300.021L1140.93 222.78L1917.8 -246.099L1895.03 -269.637Z" fill="#2151F5"/>
</g>
<g style="mix-blend-mode:overlay">
<path d="M1496.16 -379.419L1472.7 -401.816L1161.37 72.7145L1524.23 -363.312L1496.16 -379.419Z" fill="#2151F5"/>
</g>
<g style="mix-blend-mode:multiply" opacity="0.53">
<path d="M1207.17 -394.094L1180.82 -413.174L887.853 229.122L1237.98 -383.692L1207.17 -394.094Z" fill="#2151F5"/>
</g>
<g style="mix-blend-mode:overlay">
<path d="M1501.94 1400.67L1529.17 1383.1L1140.59 969.473L1479.7 1424.21L1501.94 1400.67Z" fill="#2151F5"/>
</g>
<g style="mix-blend-mode:multiply" opacity="0.53">
<path d="M1212 1447.82L1242.62 1436.79L877.106 832.835L1186.02 1467.38L1212 1447.82Z" fill="#2151F5"/>
</g>
<g style="mix-blend-mode:multiply" opacity="0.53">
<path d="M-186.091 1386.66L-165.711 1411.87L203.708 981.016L-211.911 1367.1L-186.091 1386.66Z" fill="#2151F5"/>
</g>
<g style="mix-blend-mode:overlay">
<path d="M73.3591 1420.23L95.9685 1443.63L497.072 862.715L44.8586 1404.57L73.3591 1420.23Z" fill="#2151F5"/>
</g>
<g style="mix-blend-mode:multiply" opacity="0.53">
<path d="M645.227 1449.47L676.912 1456.32L694.692 886.068L612.852 1450.43L645.227 1449.47Z" fill="#2151F5"/>
</g>
<g style="mix-blend-mode:overlay">
<path d="M-450.053 1313.97L-436.307 1343.43L99.2059 953.126L-471.441 1289.56L-450.053 1313.97Z" fill="#2151F5"/>
</g>
<g style="mix-blend-mode:multiply" opacity="0.53">
<path d="M-562.648 1101.81L-557.102 1134.56L514.507 624.972L-583.135 1075.73L-562.648 1101.81Z" fill="#2151F5"/>
</g>
<g style="mix-blend-mode:multiply" opacity="0.53">
<path d="M-479.084 866.749L-473.379 898.646L14.5801 717.745L-491.662 836.948L-479.084 866.749Z" fill="#2151F5"/>
</g>
<g style="mix-blend-mode:multiply" opacity="0.53">
<path d="M-505.435 693.861L-504.559 726.236L20.7631 616.852L-513.582 662.548L-505.435 693.861Z" fill="#2151F5"/>
</g>
<g style="mix-blend-mode:overlay">
<path d="M-472.264 460.603L-476.377 492.739L60.3561 465.114L-475.528 428.414L-472.264 460.603Z" fill="#2151F5"/>
</g>
<g style="mix-blend-mode:multiply" opacity="0.53">
<path d="M-648.601 107.955L-664.47 136.721L270.82 390.891L-645.47 75.2621L-648.601 107.955Z" fill="#2151F5"/>
</g>
<g style="mix-blend-mode:multiply" opacity="0.53">
<path d="M-386.895 5.81532L-402.233 34.2893L42.3111 181.595L-377.501 -25.1L-386.895 5.81532Z" fill="#2151F5"/>
</g>
<g style="mix-blend-mode:multiply" opacity="0.53">
<path d="M-451.592 -300.101L-494.82 -273.697L240.806 177.057L-438.668 -330.194L-451.592 -300.101Z" fill="#2151F5"/>
</g>
<g style="mix-blend-mode:multiply" opacity="0.53">
<path d="M-34.2741 -293.706L-60.0413 -274.068L360.01 107.584L-13.9735 -318.942L-34.2741 -293.706Z" fill="#2151F5"/>
</g>
<g style="mix-blend-mode:overlay">
<path d="M148.034 -596.57L117.065 -586.566L462.76 28.9554L174.624 -615.305L148.034 -596.57Z" fill="#2151F5"/>
</g>
<g style="mix-blend-mode:multiply" opacity="0.53">
<path d="M745.297 -310.716L713.108 -314.351L748.429 215.456L777.433 -314.404L745.297 -310.716Z" fill="#2151F5"/>
</g>
<g style="mix-blend-mode:multiply" opacity="0.53">
<path d="M-374.98 -369.017L-398.863 -346.965L135.455 44.957L-358.182 -396.801L-374.98 -369.017Z" fill="#2151F5"/>
</g>
<path opacity="0.62" d="M-652.396 -237.527L-674.129 -212.45L400.531 290.635L-645.284 -269.955L-652.396 -237.527Z" fill="#2151F5"/>
<g style="mix-blend-mode:multiply" opacity="0.53">
<path d="M-372.034 337.791L-381.747 368.706L150.581 436.11L-369.567 305.522L-372.034 337.791Z" fill="#2151F5"/>
</g>
<path opacity="0.48" d="M-633.687 817.443L-633.289 850.296L305.424 609.05L-647.141 787.483L-633.687 817.443Z" fill="#2151F5"/>
<g style="mix-blend-mode:overlay">
<path d="M-401.172 984.545L-392.707 1015.78L31.2718 816.886L-415.634 955.647L-401.172 984.545Z" fill="#2151F5"/>
</g>
<g style="mix-blend-mode:multiply" opacity="0.53">
<path d="M-411.813 1255.33L-399.5 1285.71L342.283 762.884L-434.582 1231.79L-411.813 1255.33Z" fill="#2151F5"/>
</g>
<g style="mix-blend-mode:overlay">
<path d="M-52.3191 1334.35L-31.9388 1359.56L337.48 928.712L-78.1129 1314.8L-52.3191 1334.35Z" fill="#2151F5"/>
</g>
<g style="mix-blend-mode:multiply" opacity="0.53">
<path d="M262.434 1372.91L287.909 1393.16L609.8 764.874L232.155 1361.1L262.434 1372.91Z" fill="#2151F5"/>
</g>
<g style="mix-blend-mode:multiply" opacity="0.53">
<path d="M561.344 1295.64L592.631 1303.46L610.172 1017.74L529.394 1291.66L561.344 1295.64Z" fill="#2151F5"/>
</g>
<g style="mix-blend-mode:overlay">
<path d="M-10.3644 -421.666L-38.3076 -405.24L333.154 23.8604L12.8022 -444.302L-10.3644 -421.666Z" fill="#2151F5"/>
</g>
<g style="mix-blend-mode:multiply" opacity="0.53">
<path d="M315.746 -454.572L284.274 -446.345L593.878 188.096L343.371 -471.714L315.746 -454.572Z" fill="#2151F5"/>
</g>
<g style="mix-blend-mode:multiply" opacity="0.53">
<path d="M628.535 -263.48L602.344 -262.074L645.333 16.2974L654.489 -268.787L628.535 -263.48Z" fill="#2151F5"/>
</g>
<g style="mix-blend-mode:multiply" opacity="0.53">
<path d="M1669.31 -400.967L1648.93 -426.177L1279.51 4.67416L1695.13 -381.41L1669.31 -400.967Z" fill="#2151F5"/>
</g>
<g style="mix-blend-mode:overlay">
<path d="M1423.42 -432.705L1399.48 -454.757L1032.98 148.61L1452.77 -418.747L1423.42 -432.705Z" fill="#2151F5"/>
</g>
<g style="mix-blend-mode:multiply" opacity="0.53">
<path d="M837.99 -463.78L806.306 -470.626L788.526 99.6229L870.365 -464.735L837.99 -463.78Z" fill="#2151F5"/>
</g>
<g style="mix-blend-mode:overlay">
<path d="M1917.51 -341.445L1903.23 -370.636L1374.75 29.1146L1939.32 -317.403L1917.51 -341.445Z" fill="#2151F5"/>
</g>
<g style="mix-blend-mode:multiply" opacity="0.53">
<path d="M2105.44 -240.685L2098.49 -273.14L1080.22 296.101L2127.04 -215.475L2105.44 -240.685Z" fill="#2151F5"/>
</g>
<g style="mix-blend-mode:overlay">
<path d="M1868.12 557.091L1874.39 530.395L1162.69 532.73L1871.68 584.105L1868.12 557.091Z" fill="#2151F5"/>
</g>
<g style="mix-blend-mode:multiply" opacity="0.53">
<path d="M2149.12 831.455L2162.57 801.495L1209.45 625.45L2148.72 864.307L2149.12 831.455Z" fill="#2151F5"/>
</g>
<g style="mix-blend-mode:multiply" opacity="0.53">
<path d="M1974 1231.68L1995.92 1207.32L1201.12 769.306L1962.81 1262.47L1974 1231.68Z" fill="#2151F5"/>
</g>
<g style="mix-blend-mode:multiply" opacity="0.53">
<path d="M1500.46 1269.44L1526.25 1249.78L1106.2 868.155L1480.15 1294.68L1500.46 1269.44Z" fill="#2151F5"/>
</g>
<g style="mix-blend-mode:overlay">
<path d="M1324.17 1440.37L1354.21 1427.84L959.582 842.494L1299.17 1461.17L1324.17 1440.37Z" fill="#2151F5"/>
</g>
<g style="mix-blend-mode:multiply" opacity="0.53">
<path d="M982.324 1280.14L1013.5 1271.89L890.931 1013.23L952.444 1292.08L982.324 1280.14Z" fill="#2151F5"/>
</g>
<g style="mix-blend-mode:multiply" opacity="0.53">
<path d="M767.695 1304.92L799.884 1308.53L764.59 778.726L735.559 1308.61L767.695 1304.92Z" fill="#2151F5"/>
</g>
</g>
</g>
</svg>
