<svg width="40" height="40" viewBox="0 0 40 40" fill="none" xmlns="http://www.w3.org/2000/svg">
<g filter="url(#filter0_d_195_19136)">
<path d="M35.625 20C35.625 20.4973 35.4275 20.9742 35.0758 21.3258C34.7242 21.6775 34.2473 21.875 33.75 21.875H6.25C5.75272 21.875 5.27581 21.6775 4.92417 21.3258C4.57254 20.9742 4.375 20.4973 4.375 20C4.375 19.5027 4.57254 19.0258 4.92417 18.6742C5.27581 18.3225 5.75272 18.125 6.25 18.125H33.75C34.2473 18.125 34.7242 18.3225 35.0758 18.6742C35.4275 19.0258 35.625 19.5027 35.625 20ZM6.25 11.875H33.75C34.2473 11.875 34.7242 11.6775 35.0758 11.3258C35.4275 10.9742 35.625 10.4973 35.625 10C35.625 9.50272 35.4275 9.02581 35.0758 8.67417C34.7242 8.32254 34.2473 8.125 33.75 8.125H6.25C5.75272 8.125 5.27581 8.32254 4.92417 8.67417C4.57254 9.02581 4.375 9.50272 4.375 10C4.375 10.4973 4.57254 10.9742 4.92417 11.3258C5.27581 11.6775 5.75272 11.875 6.25 11.875ZM33.75 28.125H6.25C5.75272 28.125 5.27581 28.3225 4.92417 28.6742C4.57254 29.0258 4.375 29.5027 4.375 30C4.375 30.4973 4.57254 30.9742 4.92417 31.3258C5.27581 31.6775 5.75272 31.875 6.25 31.875H33.75C34.2473 31.875 34.7242 31.6775 35.0758 31.3258C35.4275 30.9742 35.625 30.4973 35.625 30C35.625 29.5027 35.4275 29.0258 35.0758 28.6742C34.7242 28.3225 34.2473 28.125 33.75 28.125Z" fill="white"/>
<path d="M4.21707 17.9671L4.91861 18.6686L4.21707 17.9671C3.6779 18.5062 3.375 19.2375 3.375 20C3.375 20.7625 3.6779 21.4938 4.21707 22.0329L4.91861 21.3314L4.21707 22.0329C4.75623 22.5721 5.4875 22.875 6.25 22.875H33.75C34.5125 22.875 35.2438 22.5721 35.7829 22.0329C36.3221 21.4938 36.625 20.7625 36.625 20C36.625 19.2375 36.3221 18.5062 35.7829 17.9671C35.2438 17.4279 34.5125 17.125 33.75 17.125H6.25C5.4875 17.125 4.75624 17.4279 4.21707 17.9671ZM6.25 12.875H33.75C34.5125 12.875 35.2438 12.5721 35.7829 12.0329C36.3221 11.4938 36.625 10.7625 36.625 10C36.625 9.2375 36.3221 8.50623 35.7829 7.96707C35.2438 7.4279 34.5125 7.125 33.75 7.125H6.25C5.4875 7.125 4.75624 7.4279 4.21707 7.96707C3.6779 8.50623 3.375 9.2375 3.375 10C3.375 10.7625 3.6779 11.4938 4.21707 12.0329C4.75624 12.5721 5.4875 12.875 6.25 12.875ZM33.75 27.125H6.25C5.4875 27.125 4.75623 27.4279 4.21707 27.9671C3.6779 28.5062 3.375 29.2375 3.375 30C3.375 30.7625 3.6779 31.4938 4.21707 32.0329C4.75623 32.5721 5.4875 32.875 6.25 32.875H33.75C34.5125 32.875 35.2438 32.5721 35.7829 32.0329C36.3221 31.4938 36.625 30.7625 36.625 30C36.625 29.2375 36.3221 28.5062 35.7829 27.9671C35.2438 27.4279 34.5125 27.125 33.75 27.125Z" stroke="black" stroke-width="2"/>
</g>
<defs>
<filter id="filter0_d_195_19136" x="2.375" y="6.125" width="35.25" height="29.75" filterUnits="userSpaceOnUse" color-interpolation-filters="sRGB">
<feFlood flood-opacity="0" result="BackgroundImageFix"/>
<feColorMatrix in="SourceAlpha" type="matrix" values="0 0 0 0 0 0 0 0 0 0 0 0 0 0 0 0 0 0 127 0" result="hardAlpha"/>
<feOffset dy="2"/>
<feComposite in2="hardAlpha" operator="out"/>
<feColorMatrix type="matrix" values="0 0 0 0 0 0 0 0 0 0 0 0 0 0 0 0 0 0 1 0"/>
<feBlend mode="normal" in2="BackgroundImageFix" result="effect1_dropShadow_195_19136"/>
<feBlend mode="normal" in="SourceGraphic" in2="effect1_dropShadow_195_19136" result="shape"/>
</filter>
</defs>
</svg>
