<svg width="175" height="46" viewBox="0 0 175 46" fill="none" xmlns="http://www.w3.org/2000/svg">
<g clip-path="url(#clip0_102_153)">
<path d="M51.8438 32.2825V13.6084H60.0852C63.7411 13.6084 66.0769 16.28 66.0769 19.6547C66.0769 23.0294 63.7411 25.5058 60.0852 25.5058H55.7536V32.2864H51.8438V32.2825ZM59.4642 22.3264C61.714 22.3264 62.6436 21.1741 62.6436 19.5415C62.6436 17.9947 61.714 16.8425 59.4642 16.8425H55.7497V22.3264H59.4642Z" fill="#270459"/>
<path d="M76.2283 32.2824V30.3412C75.2713 31.9153 73.8378 32.6457 71.924 32.6457C69.1664 32.6457 67.2252 30.5912 67.2252 27.5563V18.4438H70.8811V26.9939C70.8811 28.7359 71.6701 29.5835 73.2168 29.5835C75.0721 29.5835 76.0564 28.2633 76.0564 26.4314V18.4438H79.685V32.2824H76.2243H76.2283Z" fill="#270459"/>
<path d="M81.5714 32.2826V18.448H85.0008V20.108C86.2116 18.2527 87.6178 18.0847 89.1059 18.0847H89.5824V21.8266C89.2465 21.7719 88.9067 21.7406 88.5708 21.7406C86.321 21.7406 85.2234 22.8655 85.2234 25.088V32.2866H81.5675L81.5714 32.2826Z" fill="#270459"/>
<path d="M90.8793 38.8366V18.4478H94.3946L94.4219 20.1352C95.293 18.7291 96.5858 18.0807 98.2732 18.0807C101.761 18.0807 104.265 20.8383 104.265 25.5058C104.265 29.6968 102.156 32.6497 98.5817 32.6497C96.867 32.6497 95.5156 31.9466 94.4766 30.4858V38.8405H90.8754L90.8793 38.8366ZM100.554 25.2519C100.554 22.7756 99.2613 21.0609 97.4334 21.0609C95.6054 21.0609 94.3399 22.6896 94.3399 25.0254C94.3399 28.0329 95.3828 29.525 97.406 29.525C99.5426 29.525 100.558 28.0915 100.558 25.248L100.554 25.2519Z" fill="#270459"/>
<path d="M105.87 32.2826V13.382H109.526V32.2826H105.87Z" fill="#270459"/>
<path d="M114.701 26.3223C114.815 28.4041 115.994 29.7555 117.795 29.7555C118.974 29.7555 120.017 29.1657 120.271 28.2088H124.04C123.197 31.0484 120.92 32.6537 117.967 32.6537C113.354 32.6537 111.049 30.1227 111.049 25.1153C111.049 20.8384 113.494 18.0847 117.744 18.0847C121.994 18.0847 124.24 20.8423 124.24 26.3262H114.705L114.701 26.3223ZM120.466 24.0178C120.412 21.9633 119.06 20.979 117.627 20.979C116.193 20.979 114.955 22.1039 114.815 24.0178H120.466Z" fill="#270459"/>
<path d="M136.274 19.1197C136.078 17.2058 134.922 16.2801 132.559 16.2801C130.364 16.2801 129.212 17.0691 129.212 18.4752C129.212 19.6548 130.028 20.3305 132.11 20.8383C134.219 21.346 136.274 21.8499 137.653 22.4709C139.285 23.2013 140.578 24.3536 140.578 26.9979C140.578 31.103 137.485 32.9309 133.126 32.9309C128.513 32.9309 125.306 30.8764 125.22 26.6854H128.989C129.044 28.5993 130.649 29.7789 133.153 29.7789C135.457 29.7789 136.781 28.7946 136.781 27.1346C136.781 26.037 136.219 25.2793 133.883 24.7715C131.579 24.2637 130.087 23.9278 128.763 23.338C126.767 22.4397 125.642 21.0883 125.642 18.7252C125.642 15.3778 127.919 12.9874 132.477 12.9874C137.035 12.9874 139.848 15.5458 139.988 19.1197H136.274Z" fill="#270459"/>
<path d="M150.558 32.2825C150.444 31.9466 150.362 31.4662 150.331 31.0444C149.46 32.0013 147.995 32.6458 146.14 32.6458C142.988 32.6458 141.527 31.099 141.527 28.8492C141.527 24.8574 144.199 24.4043 147.882 23.9005C149.71 23.6466 150.218 23.2833 150.218 22.3264C150.218 21.428 149.319 20.8929 147.882 20.8929C146.222 20.8929 145.546 21.7093 145.378 22.9474H141.976C142.031 20.0766 143.609 18.0807 148.05 18.0807C152.491 18.0807 153.956 20.0493 153.956 23.5372V32.2864H150.554L150.558 32.2825ZM150.304 25.5019C149.937 25.869 149.292 26.0643 147.941 26.3182C145.859 26.7127 145.183 27.3025 145.183 28.486C145.183 29.525 145.8 30.0327 146.956 30.0327C148.839 30.0327 150.245 28.6539 150.276 27.0252L150.304 25.5058V25.5019Z" fill="#270459"/>
<path d="M155.846 32.2826V13.382H159.502V32.2826H155.846Z" fill="#270459"/>
<path d="M164.677 26.3223C164.791 28.4041 165.97 29.7555 167.771 29.7555C168.95 29.7555 169.993 29.1657 170.247 28.2088H174.016C173.173 31.0484 170.896 32.6537 167.943 32.6537C163.33 32.6537 161.025 30.1227 161.025 25.1153C161.025 20.8384 163.47 18.0847 167.72 18.0847C171.97 18.0847 174.216 20.8423 174.216 26.3262H164.681L164.677 26.3223ZM170.442 24.0178C170.388 21.9633 169.036 20.979 167.603 20.979C166.169 20.979 164.931 22.1039 164.791 24.0178H170.442Z" fill="#270459"/>
<path d="M32.503 7.27524C33.955 5.33115 34.5251 3.3627 34.603 3.07523L34.8174 2.28103C34.9538 1.76943 34.8759 1.22859 34.5933 0.780331C34.3107 0.33207 33.8575 0.0251083 33.3362 -0.0674673L32.5371 -0.213639C32.0694 -0.301343 27.845 -1.00297 24.254 1.2627C23.8009 1.5453 23.3721 1.87175 22.9677 2.23231C22.3976 1.72558 21.5547 1.59889 20.8385 1.97407L19.825 2.50516C19.825 2.50516 19.786 2.4808 19.7666 2.46618C16.8139 0.614669 13.2911 1.17987 12.8867 1.25295L12.0779 1.404C11.5614 1.50145 11.1034 1.80841 10.8208 2.25667C10.5382 2.70493 10.4603 3.25064 10.5967 3.75737L10.8111 4.5467C10.8452 4.66851 11.0498 5.37988 11.5078 6.30076C4.76443 9.8771 0.491333 16.8934 0.491333 24.621C0.491333 36.0419 9.783 45.3287 21.2039 45.3287C32.6248 45.3287 41.9165 36.037 41.9165 24.621C41.9165 17.634 38.2914 11.0708 32.503 7.28011V7.27524Z" fill="white"/>
<path d="M28.6391 8.14262C27.2017 7.48972 25.6864 7.99645 24.2247 8.48856C23.2356 8.81989 22.2124 9.16096 21.2038 9.16096C20.1952 9.16096 19.2354 8.79553 18.2755 8.44471C16.8966 7.93798 15.469 7.41176 14.095 8.00132C7.43441 10.8517 3.13208 17.3758 3.13208 24.6211C3.13208 34.5851 11.2398 42.6928 21.2038 42.6928C31.1679 42.6928 39.2756 34.5851 39.2756 24.6211C39.2756 17.5317 35.0999 11.0661 28.6391 8.14262Z" fill="#8A73F9"/>
<path d="M26.8027 25.542C28.4146 25.542 29.7212 23.4587 29.7212 20.8889C29.7212 18.319 28.4146 16.2357 26.8027 16.2357C25.1908 16.2357 23.8841 18.319 23.8841 20.8889C23.8841 23.4587 25.1908 25.542 26.8027 25.542Z" fill="#270459"/>
<path d="M26.8028 23.7636C27.2602 23.7636 27.6311 23.1703 27.6311 22.4383C27.6311 21.7064 27.2602 21.113 26.8028 21.113C26.3453 21.113 25.9745 21.7064 25.9745 22.4383C25.9745 23.1703 26.3453 23.7636 26.8028 23.7636Z" fill="white"/>
<path d="M19.0845 22.721H17.9638C17.9638 21.8927 16.887 21.196 15.6104 21.196C14.3339 21.196 13.2571 21.8927 13.2571 22.721H12.1364C12.1364 21.2349 13.6663 20.0704 15.6153 20.0704C17.5643 20.0704 19.0942 21.2349 19.0942 22.721H19.0845Z" fill="#270459"/>
<path d="M26.9437 31.4324V31.4422C26.9437 31.8563 26.8999 32.2607 26.817 32.6505C26.2616 35.2378 23.957 37.1819 21.1992 37.1819C18.4414 37.1819 16.1416 35.2426 15.591 32.6554C15.5082 32.2656 15.4644 31.8563 15.4644 31.4422V31.4324C15.4644 30.9403 15.859 30.5408 16.356 30.5408H26.057C26.5491 30.5408 26.9486 30.9403 26.9486 31.4324H26.9437Z" fill="#B70BE0"/>
<path d="M21.2039 37.3671C18.4803 37.3671 16.0782 35.4717 15.4448 32.8406L15.4107 32.6945C15.323 32.2803 15.2791 31.8613 15.2791 31.4423C15.2791 30.8381 15.7615 30.3557 16.3559 30.3557H26.0568C26.6513 30.3557 27.1336 30.8381 27.1336 31.4325V31.4423C27.1336 31.8564 27.0898 32.2754 27.0021 32.6896C26.4174 35.4035 23.9812 37.372 21.2039 37.372V37.3671ZM15.7517 32.5142L15.7761 32.6116C16.3169 35.1502 18.6021 36.9919 21.2039 36.9919C23.8058 36.9919 26.091 35.1502 26.6367 32.6068C26.7195 32.2218 26.7585 31.8272 26.7585 31.4374V31.4276C26.7585 31.0378 26.4418 30.726 26.0568 30.726H16.3559C15.9661 30.726 15.6543 31.0427 15.6543 31.4276C15.6543 31.7931 15.6884 32.1536 15.7566 32.5093L15.7517 32.5142Z" fill="black"/>
<path d="M23.7183 32.7042C23.7183 32.8894 23.6988 33.0648 23.6647 33.2353C23.4211 34.3706 22.4125 35.2184 21.2041 35.2184C19.9958 35.2184 18.992 34.3706 18.7484 33.2353C18.7143 33.0648 18.6948 32.8845 18.6948 32.7042C18.6948 32.485 18.8702 32.3096 19.0846 32.3096H23.3334C23.5477 32.3096 23.7231 32.485 23.7231 32.6994L23.7183 32.7042Z" fill="#9B08BF"/>
<path d="M26.9438 31.2865C26.9438 31.6422 26.9 31.9784 26.8171 32.3048C26.3932 32.3877 25.487 32.6654 23.9473 32.8408C23.1921 32.9236 22.2809 32.987 21.1993 32.987C20.1176 32.987 19.2113 32.9285 18.4561 32.8457C16.8969 32.6751 15.9907 32.3974 15.5911 32.3097C15.5083 31.9833 15.4644 31.6422 15.4644 31.2962C15.4644 30.8821 15.8591 30.5459 16.3561 30.5459H26.057C26.5492 30.5459 26.9487 30.8821 26.9487 31.2914L26.9438 31.2865Z" fill="#E3E0FD"/>
<path d="M23.9469 30.541C23.9469 30.541 24.1223 30.9064 24.1223 31.764C24.1223 32.5582 23.9469 32.8359 23.9469 32.8359C23.1917 32.9187 22.2806 32.9821 21.1989 32.9821C20.1172 32.9821 19.211 32.9236 18.4557 32.8408C18.4557 32.8408 18.2803 32.5582 18.2803 31.5886C18.2803 30.619 18.4557 30.541 18.4557 30.541H23.9469Z" fill="white"/>
<path d="M21.2039 37.5523C18.4412 37.5523 16.005 35.6667 15.2985 33.0259H15.2888L15.2206 32.7287C15.1329 32.3048 15.0842 31.8711 15.0842 31.4375C15.0842 30.731 15.6493 30.1658 16.351 30.1658H26.0519C26.7487 30.1658 27.3188 30.731 27.3188 31.4326V31.4423C27.3188 31.8711 27.2749 32.3048 27.1823 32.7287C26.5781 35.5254 24.064 37.5572 21.199 37.5572L21.2039 37.5523ZM15.9319 32.4412L15.9612 32.5727C16.4874 35.0236 18.6897 36.8069 21.2039 36.8069C23.718 36.8069 25.9252 35.0236 26.4563 32.5679C26.5343 32.1976 26.5733 31.8175 26.5733 31.4375V31.4277C26.5733 31.1451 26.3394 30.9113 26.0568 30.9113H16.3558C16.0732 30.9113 15.8394 31.1451 15.8394 31.4277C15.8394 31.7688 15.8686 32.105 15.9319 32.4363V32.4412Z" fill="#270459"/>
<path d="M29.4966 7.73334C31.8939 5.75027 32.7416 2.72938 32.7806 2.58808L32.995 1.79875L32.1862 1.65258C32.0303 1.62334 28.2737 0.96557 25.2528 2.87068C23.8105 3.78182 22.8263 5.09737 22.1832 6.23751C22.1442 5.22405 22.0175 4.2447 21.7057 3.66001L20.3706 4.36163C20.5217 4.64911 20.6094 5.2143 20.6532 5.89157C20.1757 5.23379 19.5521 4.58089 18.7579 4.08391C16.346 2.56859 13.3495 3.10455 13.2277 3.12404L12.4189 3.27509L12.6333 4.06442C12.6576 4.15699 13.101 5.72103 14.2655 7.14865C14.1096 7.1925 13.9537 7.2461 13.7929 7.31431C6.86433 10.2767 2.37685 17.0737 2.37685 24.6211C2.37685 34.9993 10.8207 43.4432 21.2038 43.4432C31.5869 43.4432 40.0308 34.9993 40.0308 24.6211C40.0308 17.444 35.9136 10.8858 29.5015 7.73334H29.4966ZM26.0616 4.14238C27.7718 3.06557 29.8523 2.98274 31.0168 3.04609C30.5734 4.12289 29.6087 5.95978 27.8887 7.04633C27.84 7.07556 27.7913 7.09992 27.7426 7.12428C26.4368 6.95862 25.1504 7.38739 23.9811 7.77719C23.6303 7.89412 23.2843 8.01106 22.9481 8.10851C23.3964 7.03171 24.3562 5.2143 26.0616 4.14238ZM17.9588 5.3556C19.1476 6.10108 19.8736 7.34354 20.2488 8.17672C20.1173 8.17672 19.9662 8.17672 19.8152 8.17672C19.401 8.05491 18.9722 7.899 18.5337 7.73821C17.837 7.48484 17.0964 7.21199 16.3314 7.07556C15.3667 6.32521 14.7576 5.26303 14.4214 4.52242C15.3374 4.49319 16.765 4.60525 17.9588 5.3556ZM21.1989 41.1824C12.0681 41.1824 4.63764 33.752 4.63764 24.6211C4.63764 17.98 8.58429 12.0016 14.6894 9.38995C14.9135 9.2925 15.1572 9.25352 15.4105 9.25352C16.0878 9.25352 16.8771 9.541 17.7493 9.86257C18.7822 10.2426 19.9516 10.6714 21.1989 10.6714C22.4463 10.6714 23.6497 10.2719 24.7022 9.92104C25.9982 9.4874 27.114 9.1171 28.0105 9.52151C33.9305 12.1965 37.7602 18.1262 37.7602 24.6211C37.7602 33.752 30.3298 41.1824 21.1989 41.1824Z" fill="#270459"/>
<path d="M31.0217 3.04106C30.9145 3.29929 30.7781 3.60138 30.6075 3.92296C30.0764 4.95591 29.2043 6.21786 27.8936 7.0413C26.1834 8.12297 24.1029 8.20093 22.9384 8.13759L22.953 8.10835C23.3964 7.03155 24.3611 5.21415 26.0616 4.13735C27.7767 3.06055 29.8572 2.98259 31.0217 3.04106Z" fill="#62BF37"/>
<path d="M30.6076 3.92297C30.0765 4.95592 29.2043 6.21787 27.8936 7.04131C26.1834 8.12298 24.1029 8.20094 22.9384 8.1376L22.953 8.10837C24.0201 7.78679 25.7352 7.19235 27.5331 6.25685C28.912 5.54061 29.9108 4.6782 30.6076 3.92297Z" fill="#8CDD62"/>
<path d="M20.2488 8.17651C19.3327 8.20087 17.9051 8.0888 16.7114 7.34333C15.5225 6.59785 14.8014 5.35539 14.4262 4.52221C14.4652 4.52221 14.4993 4.51733 14.5383 4.52221C14.587 4.51733 14.6358 4.51733 14.6845 4.51733C15.5907 4.51733 16.8771 4.67325 17.9587 5.35539C19.0404 6.03265 19.7323 7.11432 20.1318 7.93289C20.1757 8.01572 20.2147 8.09855 20.2488 8.17651Z" fill="#62BF37"/>
<path d="M20.2488 8.17661C19.3328 8.20097 17.9052 8.0889 16.7115 7.34343C15.5226 6.59795 14.8015 5.35549 14.4263 4.52231C14.4653 4.52231 14.4994 4.51743 14.5384 4.52231C15.0207 5.15085 15.8637 6.03275 17.2036 6.72463C18.3096 7.29958 19.3718 7.68937 20.1319 7.93299C20.1757 8.01582 20.2147 8.09865 20.2488 8.17661Z" fill="#8CDD62"/>
</g>
<defs>
<clipPath id="clip0_102_153">
<rect width="174" height="45" fill="white" transform="translate(0.215591 0.987427)"/>
</clipPath>
</defs>
</svg>
