<svg width="148" height="40" viewBox="0 0 148 40" fill="none" xmlns="http://www.w3.org/2000/svg">
<path d="M19.963 39.6854C30.7452 39.6854 39.486 30.9447 39.486 20.1624C39.486 9.38016 30.7452 0.639404 19.963 0.639404C9.18069 0.639404 0.439941 9.38016 0.439941 20.1624C0.439941 30.9447 9.18069 39.6854 19.963 39.6854Z" fill="url(#paint0_linear_20_18930)"/>
<path d="M13.6552 21.5894L15.9715 28.0004C15.9715 28.0004 16.2611 28.6003 16.5712 28.6003C16.8812 28.6003 21.4934 23.8022 21.4934 23.8022L26.6223 13.8959L13.7379 19.9345L13.6552 21.5894Z" fill="#C8DAEA"/>
<path d="M16.7264 23.2338L16.2817 27.9593C16.2817 27.9593 16.0956 29.4073 17.5433 27.9593C18.9909 26.5114 20.3765 25.3948 20.3765 25.3948" fill="#A9C6D8"/>
<path d="M13.6971 21.8182L8.93247 20.2657C8.93247 20.2657 8.36305 20.0347 8.5464 19.5109C8.58415 19.4028 8.66029 19.3109 8.88805 19.1529C9.94376 18.4171 28.4283 11.7732 28.4283 11.7732C28.4283 11.7732 28.9502 11.5974 29.258 11.7143C29.3342 11.7379 29.4027 11.7813 29.4566 11.84C29.5105 11.8988 29.5478 11.9708 29.5647 12.0487C29.598 12.1863 29.6119 12.3278 29.606 12.4692C29.6046 12.5916 29.5898 12.705 29.5785 12.8828C29.466 14.6992 26.0969 28.256 26.0969 28.256C26.0969 28.256 25.8954 29.0493 25.1732 29.0765C24.9957 29.0822 24.8189 29.0522 24.6533 28.9881C24.4877 28.924 24.3366 28.8273 24.2092 28.7036C22.792 27.4845 17.8937 24.1926 16.8113 23.4687C16.7869 23.452 16.7663 23.4303 16.751 23.4051C16.7357 23.3798 16.726 23.3516 16.7225 23.3222C16.7073 23.2459 16.7903 23.1514 16.7903 23.1514C16.7903 23.1514 25.3196 15.57 25.5466 14.7741C25.5641 14.7124 25.4977 14.682 25.4086 14.709C24.8421 14.9174 15.0217 21.1191 13.9378 21.8035C13.8598 21.8271 13.7774 21.8321 13.6971 21.8182Z" fill="white"/>
<path d="M147.195 21.443V28.6121H144.025V21.7844C144.025 21.0204 143.895 20.4514 143.635 20.0775C143.375 19.6874 142.952 19.4923 142.367 19.4923C141.977 19.4923 141.636 19.5817 141.343 19.7605C141.05 19.9231 140.823 20.1832 140.66 20.5408C140.498 20.8822 140.416 21.2967 140.416 21.7844V28.6121H137.271V21.7844C137.271 21.0204 137.141 20.4514 136.881 20.0775C136.62 19.6874 136.198 19.4923 135.613 19.4923C135.222 19.4923 134.881 19.5817 134.588 19.7605C134.296 19.9231 134.068 20.1832 133.906 20.5408C133.743 20.8822 133.662 21.2967 133.662 21.7844V28.6121H130.614V17.3952H133.662V19.0534C133.987 18.4356 134.418 17.9642 134.954 17.6391C135.491 17.3139 136.133 17.1514 136.881 17.1514C137.71 17.1514 138.392 17.3139 138.929 17.6391C139.465 17.9642 139.855 18.4437 140.099 19.0777C140.506 18.4437 141.002 17.9642 141.587 17.6391C142.188 17.3139 142.871 17.1514 143.635 17.1514C144.464 17.1514 145.139 17.3221 145.659 17.6634C146.179 17.9886 146.561 18.4763 146.805 19.1265C147.065 19.7605 147.195 20.5327 147.195 21.443Z" fill="#222222"/>
<path d="M120.141 25.1249C120.141 25.45 120.222 25.7345 120.385 25.9784C120.547 26.206 120.767 26.3848 121.043 26.5148C121.336 26.6286 121.653 26.6855 121.994 26.6855C122.482 26.6855 122.921 26.588 123.311 26.3929C123.701 26.1816 124.018 25.889 124.262 25.5151C124.506 25.1249 124.628 24.6616 124.628 24.1251L125.018 25.5882C125.018 26.3035 124.815 26.905 124.408 27.3927C124.018 27.8804 123.506 28.2461 122.872 28.49C122.254 28.7338 121.604 28.8557 120.921 28.8557C120.222 28.8557 119.572 28.7176 118.971 28.4412C118.369 28.1648 117.881 27.7666 117.507 27.2464C117.15 26.7099 116.971 26.0596 116.971 25.2956C116.971 24.2064 117.353 23.3448 118.117 22.7108C118.881 22.0769 119.962 21.7599 121.36 21.7599C122.076 21.7599 122.701 21.833 123.238 21.9793C123.791 22.1256 124.254 22.3044 124.628 22.5158C125.002 22.7271 125.27 22.9303 125.432 23.1254V24.5885C124.994 24.2633 124.498 24.0195 123.945 23.8569C123.409 23.6944 122.84 23.6131 122.238 23.6131C121.75 23.6131 121.352 23.6781 121.043 23.8081C120.734 23.9219 120.507 24.0926 120.36 24.3202C120.214 24.5316 120.141 24.7998 120.141 25.1249ZM118.922 20.565L117.751 18.4192C118.337 18.1103 119.052 17.8177 119.897 17.5413C120.743 17.2487 121.685 17.1024 122.726 17.1024C123.685 17.1024 124.538 17.2406 125.286 17.517C126.034 17.7933 126.619 18.1997 127.042 18.7362C127.464 19.2564 127.676 19.8985 127.676 20.6626V28.6119H124.628V21.3209C124.628 21.0121 124.579 20.752 124.481 20.5406C124.384 20.313 124.229 20.1261 124.018 19.9798C123.823 19.8335 123.587 19.7278 123.311 19.6628C123.035 19.5978 122.726 19.5652 122.384 19.5652C121.864 19.5652 121.368 19.6221 120.897 19.7359C120.426 19.8497 120.019 19.9879 119.678 20.1505C119.336 20.313 119.084 20.4512 118.922 20.565Z" fill="#222222"/>
<path d="M111.493 17.3952V28.612H108.396V17.3952H111.493ZM114.785 20.6871C114.574 20.492 114.354 20.3457 114.127 20.2482C113.915 20.1344 113.647 20.0775 113.322 20.0775C112.932 20.0775 112.598 20.1831 112.322 20.3945C112.046 20.6058 111.834 20.9065 111.688 21.2967C111.558 21.6706 111.493 22.1258 111.493 22.6622L110.615 21.7844C110.615 20.8903 110.786 20.1019 111.127 19.4191C111.469 18.7201 111.916 18.1674 112.468 17.761C113.021 17.3383 113.59 17.127 114.175 17.127C114.582 17.127 114.964 17.2001 115.321 17.3464C115.695 17.4927 115.996 17.7122 116.224 18.0048L114.785 20.6871Z" fill="#222222"/>
<path d="M93.2863 29.3924H96.3831C96.3993 29.8801 96.5294 30.2946 96.7732 30.636C97.0171 30.9936 97.3503 31.27 97.773 31.4651C98.1957 31.6601 98.6915 31.7577 99.2605 31.7577C99.7807 31.7577 100.268 31.6357 100.724 31.3919C101.195 31.1481 101.569 30.7742 101.845 30.2702C102.138 29.7663 102.284 29.1323 102.284 28.3682V17.3952H105.332V28.3682C105.332 29.75 105.056 30.888 104.503 31.7821C103.967 32.6762 103.243 33.3264 102.333 33.7328C101.423 34.1555 100.431 34.3668 99.358 34.3668C98.0575 34.3668 96.9683 34.1555 96.0905 33.7328C95.2126 33.3264 94.538 32.7412 94.0666 31.9771C93.6114 31.2293 93.3513 30.3678 93.2863 29.3924ZM93.0668 22.9061C93.0668 21.6544 93.3188 20.6058 93.8227 19.7605C94.3267 18.8989 94.9932 18.2487 95.8222 17.8097C96.6513 17.3708 97.5292 17.1514 98.4558 17.1514C99.3986 17.1514 100.228 17.379 100.943 17.8341C101.675 18.2893 102.243 18.9477 102.65 19.8093C103.073 20.6546 103.284 21.6869 103.284 22.9061C103.284 24.1091 103.073 25.1413 102.65 26.0029C102.243 26.8645 101.675 27.5229 100.943 27.9781C100.228 28.417 99.3986 28.6365 98.4558 28.6365C97.5292 28.6365 96.6513 28.417 95.8222 27.9781C94.9932 27.5392 94.3267 26.897 93.8227 26.0517C93.3188 25.1901 93.0668 24.1416 93.0668 22.9061ZM96.3343 22.9061C96.3343 23.5726 96.4725 24.1416 96.7489 24.613C97.0252 25.0682 97.3991 25.4177 97.8705 25.6616C98.342 25.9054 98.8459 26.0273 99.3824 26.0273C99.8538 26.0273 100.309 25.9135 100.748 25.6859C101.203 25.4421 101.569 25.0926 101.845 24.6374C102.138 24.166 102.284 23.5889 102.284 22.9061C102.284 22.3859 102.203 21.9307 102.04 21.5406C101.878 21.1504 101.65 20.8253 101.358 20.5652C101.081 20.3051 100.772 20.11 100.431 19.98C100.09 19.8337 99.74 19.7605 99.3824 19.7605C98.8459 19.7605 98.342 19.8824 97.8705 20.1263C97.3991 20.3701 97.0252 20.7278 96.7489 21.1992C96.4725 21.6544 96.3343 22.2233 96.3343 22.9061Z" fill="#222222"/>
<path d="M85.5884 28.8559C84.3692 28.8559 83.3044 28.6121 82.3941 28.1244C81.4837 27.6367 80.7766 26.9621 80.2726 26.1005C79.7849 25.2226 79.5411 24.1904 79.5411 23.0036C79.5411 21.8007 79.7849 20.7684 80.2726 19.9068C80.7766 19.029 81.4837 18.3543 82.3941 17.8829C83.3044 17.3952 84.3773 17.1514 85.6128 17.1514C86.8483 17.1514 87.8968 17.379 88.7584 17.8341C89.6362 18.2731 90.3028 18.9233 90.7579 19.7849C91.2131 20.6302 91.4407 21.6544 91.4407 22.8573C91.4407 23.0036 91.4326 23.1581 91.4163 23.3206C91.4163 23.4832 91.4082 23.6133 91.3919 23.7108H81.3455V21.76H88.6365L87.783 22.8817C87.8481 22.7842 87.905 22.6541 87.9537 22.4916C88.0187 22.3127 88.0513 22.1664 88.0513 22.0526C88.0513 21.4999 87.9456 21.0285 87.7343 20.6383C87.5392 20.2482 87.2547 19.9393 86.8808 19.7117C86.5069 19.4841 86.068 19.3704 85.564 19.3704C84.9463 19.3704 84.4261 19.5085 84.0034 19.7849C83.597 20.045 83.28 20.4433 83.0524 20.9797C82.8411 21.4999 82.7273 22.1502 82.7111 22.9305C82.7111 23.6783 82.8167 24.3123 83.0281 24.8325C83.2556 25.3527 83.5889 25.751 84.0278 26.0273C84.4667 26.3037 84.9951 26.4419 85.6128 26.4419C86.3118 26.4419 86.9052 26.3118 87.3929 26.0517C87.8968 25.7753 88.3114 25.3689 88.6365 24.8325L91.3919 25.6859C90.8067 26.7426 90.0264 27.5392 89.051 28.0756C88.0919 28.5958 86.9377 28.8559 85.5884 28.8559Z" fill="#222222"/>
<path d="M74.0104 9.59216H77.1804V28.6121H74.0104V9.59216Z" fill="#222222"/>
<path d="M65.776 28.8559C64.5568 28.8559 63.492 28.6121 62.5816 28.1244C61.6713 27.6367 60.9641 26.9621 60.4602 26.1005C59.9725 25.2226 59.7286 24.1904 59.7286 23.0036C59.7286 21.8007 59.9725 20.7684 60.4602 19.9068C60.9641 19.029 61.6713 18.3543 62.5816 17.8829C63.492 17.3952 64.5649 17.1514 65.8004 17.1514C67.0359 17.1514 68.0844 17.379 68.946 17.8341C69.8238 18.2731 70.4903 18.9233 70.9455 19.7849C71.4007 20.6302 71.6283 21.6544 71.6283 22.8573C71.6283 23.0036 71.6201 23.1581 71.6039 23.3206C71.6039 23.4832 71.5957 23.6133 71.5795 23.7108H61.5331V21.76H68.824L67.9706 22.8817C68.0356 22.7842 68.0925 22.6541 68.1413 22.4916C68.2063 22.3127 68.2388 22.1664 68.2388 22.0526C68.2388 21.4999 68.1332 21.0285 67.9218 20.6383C67.7267 20.2482 67.4423 19.9393 67.0684 19.7117C66.6945 19.4841 66.2555 19.3704 65.7516 19.3704C65.1339 19.3704 64.6137 19.5085 64.191 19.7849C63.7846 20.045 63.4676 20.4433 63.24 20.9797C63.0287 21.4999 62.9149 22.1502 62.8986 22.9305C62.8986 23.6783 63.0043 24.3123 63.2156 24.8325C63.4432 25.3527 63.7765 25.751 64.2154 26.0273C64.6543 26.3037 65.1826 26.4419 65.8004 26.4419C66.4994 26.4419 67.0927 26.3118 67.5804 26.0517C68.0844 25.7753 68.4989 25.3689 68.824 24.8325L71.5795 25.6859C70.9943 26.7426 70.214 27.5392 69.2386 28.0756C68.2795 28.5958 67.1253 28.8559 65.776 28.8559Z" fill="#222222"/>
<path d="M48.545 14.6884V11.5428H61.2249V14.6884H56.6162V28.612H53.1292V14.6884H48.545Z" fill="#222222"/>
<defs>
<linearGradient id="paint0_linear_20_18930" x1="19.963" y1="39.6854" x2="19.963" y2="0.639404" gradientUnits="userSpaceOnUse">
<stop stop-color="#1D93D2"/>
<stop offset="1" stop-color="#38B0E3"/>
</linearGradient>
</defs>
</svg>
