<svg width="152" height="35" viewBox="0 0 152 35" fill="none" xmlns="http://www.w3.org/2000/svg">
<path d="M17.9103 15.2808L28.708 2.99988H26.1502L16.7706 13.6611L9.28476 2.99988H0.64856L11.9711 19.123L0.64856 31.9999H3.20636L13.105 20.7389L21.0124 31.9999H29.6486M4.12953 4.88717H8.05903L26.1483 30.2053H22.2178" fill="black"/>
<path d="M47.941 17.7383L43.2915 9.98914H46.8698L49.0122 13.6358L50.3341 16.1201H50.4252L51.7244 13.613L53.7756 9.98914H57.3539L52.7044 17.7383L57.3539 25.4874H53.7756L51.6332 21.818L50.2885 19.3337H50.1973L48.8982 21.8408L46.847 25.4874H43.2915L47.941 17.7383ZM66.6228 28.929C64.298 26.1484 63.3864 22.3878 63.3864 19.1058C63.3864 15.8238 64.298 12.0632 66.6228 9.2826H69.8364C67.5344 12.0632 66.5088 15.8238 66.5088 19.1058C66.5088 22.3878 67.5344 26.1484 69.8364 28.929H66.6228ZM75.3589 25.4874V12.8381H70.7322V9.98914H83.1308V12.8381H78.4813V25.4874H75.3589ZM93.7644 14.0916L95.1774 20.7696L95.7016 23.5501H95.7928L96.3398 20.7696L97.8213 14.0916H100.898L98.0264 25.4874H93.2857L92.1006 19.6072L91.622 16.8038H91.5308L91.0294 19.6072L89.8214 25.4874H85.3315L82.4597 14.0916H85.6733L87.1092 20.7468L87.6334 23.5273H87.7246L88.2488 20.7468L89.6847 14.0916H93.7644ZM102.398 25.4874V14.0916H105.521V25.4874H102.398ZM102.353 12.4962H105.566V9.5333H102.353V12.4962ZM111.499 25.4874C109.266 25.4874 108.422 24.3478 108.422 22.3422V16.6215H106.918V14.0916H108.422V11.4934L111.545 11.0148V14.0916H113.664V16.6215H111.545V21.7724C111.545 22.798 111.75 22.9576 112.639 22.9576H113.664V25.4874H111.499ZM119.133 25.4874C116.9 25.4874 116.057 24.3478 116.057 22.3422V16.6215H114.552V14.0916H116.057V11.4934L119.179 11.0148V14.0916H121.299V16.6215H119.179V21.7724C119.179 22.798 119.384 22.9576 120.273 22.9576H121.299V25.4874H119.133ZM128.275 25.7153C124.948 25.7153 122.554 23.6185 122.554 19.7895C122.554 15.9605 124.925 13.8637 128.184 13.8637C131.42 13.8637 133.54 15.9377 133.54 19.6072V20.5416H125.791V20.6556C125.791 22.3422 126.68 23.4818 128.298 23.4818C129.506 23.4818 130.212 22.8664 130.418 22.0687H133.38C132.993 24.2111 131.101 25.7153 128.275 25.7153ZM125.791 18.6044H130.395C130.395 17.1001 129.62 16.0973 128.138 16.0973C126.703 16.0973 125.882 17.0545 125.791 18.6044ZM135.362 25.4874V14.0916H138.347L138.393 16.5759C139.236 14.6614 140.262 13.9777 141.812 13.9777H142.404V16.9862H140.763C139.213 16.9862 138.484 17.5787 138.484 19.3793V25.4874H135.362ZM143.313 28.929C145.615 26.1484 146.641 22.3878 146.641 19.1058C146.641 15.8238 145.615 12.0632 143.313 9.2826H146.527C148.851 12.0632 149.763 15.8238 149.763 19.1058C149.763 22.3878 148.851 26.1484 146.527 28.929H143.313Z" fill="#222222"/>
</svg>
